<?xml version="1.0" encoding="UTF-8"?>
<svg id="Layer_2" data-name="Layer 2" xmlns="http://www.w3.org/2000/svg" viewBox="0 0 500 134.12">
  <defs>
    <style>
      .cls-1 {
        fill: #ff5b5d;
      }

      .cls-2 {
        fill: #7639c2;
      }
    </style>
  </defs>
  <g id="Layer_2-2" data-name="Layer 2">
    <g>
      <path d="M84.81,125.38H.5l-.5-9.79L58.26,33.6v-.33H22.41l-3.82,18.75-15.6-1.49,3.65-33.02h78.18l.33,8.79L26.4,109.28v.33h42.65l3.82-21.08,15.77,1.66-3.82,35.18h-.01Z"/>
      <path d="M133.14,126.51c-6.16,0-11.56-1.3-16.21-3.89s-8.25-6.43-10.82-11.51-3.85-11.35-3.85-18.8v-57.54h17.83v55.35c0,6.54,1.72,11.64,5.15,15.32,3.43,3.67,8.09,5.51,13.98,5.51,4.05,0,7.66-.88,10.82-2.63,3.16-1.76,5.66-4.32,7.5-7.7,1.84-3.38,2.76-7.44,2.76-12.2v-53.65h17.83v90.6h-17.02l-.08-22.2h1.7c-2.65,8.21-6.51,14.15-11.59,17.83-5.08,3.67-11.08,5.51-17.99,5.51h0Z"/>
      <path d="M202.1,125.38V34.78h17.26v14.59h.97c1.67-4.97,4.59-8.86,8.75-11.67s8.89-4.21,14.18-4.21c1.13,0,2.43.04,3.89.12,1.46.08,2.67.2,3.65.36v17.02c-.65-.22-1.89-.43-3.73-.65s-3.7-.32-5.59-.32c-4.11,0-7.81.86-11.1,2.59-3.3,1.73-5.86,4.12-7.7,7.17-1.84,3.05-2.76,6.58-2.76,10.58v55.03h-17.83.01Z"/>
      <path d="M276.58,21.16c-3.08,0-5.71-1.04-7.9-3.12s-3.28-4.55-3.28-7.42,1.09-5.48,3.28-7.54c2.19-2.05,4.82-3.08,7.9-3.08s5.73,1.03,7.94,3.08c2.22,2.05,3.32,4.57,3.32,7.54s-1.11,5.4-3.32,7.46c-2.22,2.05-4.86,3.08-7.94,3.08Z"/>
      <rect x="267.58" y="34.77" width="17.83" height="90.6"/>
      <path d="M347.48,110.47c-1.08.22-2.38.43-3.89.65s-2.73.32-3.65.32c-3.51,0-6.04-.85-7.58-2.55-1.54-1.7-2.31-4.36-2.31-7.98v-51.62h18.07v-14.51h-18.07V13.22l-17.83,7.94v13.61h-13.21v14.51h13.21v53.08c0,7.67,2.27,13.63,6.81,17.87,4.54,4.24,10.91,6.36,19.13,6.36,2.11,0,4.24-.15,6.4-.45s4.19-.77,6.08-1.42l-3.16-14.26h0Z"/>
      <polygon class="cls-2" points="495.42 21.19 494.95 8.75 384.37 8.75 379.21 55.47 401.28 57.58 406.68 31.05 440.01 54.63 440.01 54.63 461.15 69.59 495.42 21.19"/>
      <polygon class="cls-1" points="477.7 82 472.3 111.82 431.94 83.14 431.94 83.14 411.39 68.54 411.39 68.54 374.63 120.27 375.34 134.12 494.6 134.12 500 84.35 477.7 82"/>
    </g>
  </g>
</svg>